<svg width="20" height="20" viewBox="0 0 20 20" fill="none" xmlns="http://www.w3.org/2000/svg">
<path d="M15 7.08333H14.1666V5.41667C14.1666 3.11667 12.3 1.25 9.99998 1.25C7.69998 1.25 5.83331 3.11667 5.83331 5.41667V7.08333H4.99998C4.08331 7.08333 3.33331 7.83333 3.33331 8.75V17.0833C3.33331 18 4.08331 18.75 4.99998 18.75H15C15.9166 18.75 16.6666 18 16.6666 17.0833V8.75C16.6666 7.83333 15.9166 7.08333 15 7.08333ZM7.49998 5.41667C7.49998 4.03333 8.61665 2.91667 9.99998 2.91667C11.3833 2.91667 12.5 4.03333 12.5 5.41667V7.08333H7.49998V5.41667ZM15 17.0833H4.99998V8.75H15V17.0833ZM9.99998 14.5833C10.9166 14.5833 11.6666 13.8333 11.6666 12.9167C11.6666 12 10.9166 11.25 9.99998 11.25C9.08331 11.25 8.33331 12 8.33331 12.9167C8.33331 13.8333 9.08331 14.5833 9.99998 14.5833Z" fill="black"/>
</svg>
