<svg width="18" height="18" viewBox="0 0 18 18" fill="none" xmlns="http://www.w3.org/2000/svg">
<g clip-path="url(#clip0_23_204)">
<path d="M14.375 10.25H13.7825L13.5725 10.0475C14.3075 9.1925 14.75 8.0825 14.75 6.875C14.75 4.1825 12.5675 2 9.875 2C7.1825 2 5 4.1825 5 6.875C5 9.5675 7.1825 11.75 9.875 11.75C11.0825 11.75 12.1925 11.3075 13.0475 10.5725L13.25 10.7825V11.375L17 15.1175L18.1175 14L14.375 10.25ZM9.875 10.25C8.0075 10.25 6.5 8.7425 6.5 6.875C6.5 5.0075 8.0075 3.5 9.875 3.5C11.7425 3.5 13.25 5.0075 13.25 6.875C13.25 8.7425 11.7425 10.25 9.875 10.25Z" fill="#666666"/>
</g>
<defs>
<clipPath id="clip0_23_204">
<rect width="18" height="18" fill="white"/>
</clipPath>
</defs>
</svg>
